<svg xmlns="http://www.w3.org/2000/svg" viewBox="160 60 360 260">
  <defs><clipPath id="c"><circle cx="340" cy="182" r="108"/></clipPath></defs>
  <circle cx="340" cy="182" r="108" fill="#0a2a3d"/>
  <g clip-path="url(#c)">
    <rect x="232" y="214" width="216" height="90" fill="#0d7fa0"/>
    <path d="M232 214 Q276 200 320 214 Q364 228 408 214 Q430 200 448 210 L448 218 Q430 204 408 218 Q364 232 320 218 Q276 204 232 218 Z" fill="#16a8d3"/>
  </g>
  <circle cx="340" cy="182" r="108" fill="none" stroke="#1cb8e8" stroke-width="2.5" opacity="0.4"/>
  <path d="M340 110 C358 132 374 148 374 166 C374 186 358 202 340 202 C322 202 306 186 306 166 C306 148 322 132 340 110 Z" fill="#16a8d3"/>
  <path d="M340 120 C355 139 367 153 367 166 C367 183 355 196 340 196 C325 196 313 183 313 166 C313 153 325 139 340 120 Z" fill="#0a2a3d"/>
  <path d="M340 128 C352 144 361 156 361 166 C361 180 352 191 340 191 C328 191 319 180 319 166 C319 156 328 144 340 128 Z" fill="#0d7fa0"/>
  <circle cx="340" cy="110" r="6" fill="#f5a623"/>
</svg>
